<svg xmlns="http://www.w3.org/2000/svg" xmlns:xlink="http://www.w3.org/1999/xlink" viewBox="0 0 500 500"><defs><clipPath id="freepik--clip-path--inject-21"><rect x="127.13" y="87" width="158.42" height="299.23" rx="7.67" style="fill:#263238;stroke:#263238;stroke-linecap:round;stroke-linejoin:round"></rect></clipPath><clipPath id="freepik--clip-path-2--inject-21"><path d="M325.51,270.05s-12.95,2.53-15.48,3.09-3.94,35.73-2.53,48.67,2.81,92,2.81,92h41.36s1.41-103.82,2.82-114.23,4.22-24.76,4.22-24.76S334.51,268.64,325.51,270.05Z" style="fill:#fff;stroke:#263238;stroke-linecap:round;stroke-linejoin:round"></path></clipPath><clipPath id="freepik--clip-path-3--inject-21"><path d="M341.26,369.08C341,375.77,341,414.49,341,426h41l-9.19-79.74a66.29,66.29,0,0,1,10.69,6.47c6.76,4.79,9.57,11.26,19.14,11.54s11.25-6.19,11.53-9.85-3.09-14.35-6.19-21.1-9-27.85-9-32.36-2.76-7.05-4.45-7.33-24.81-15.17-24.81-15.17l-11-3.66-2.82,3.66s-8.72,21.1-9.85,32.35S341,351.92,341,351.92,341.54,361.2,341.26,369.08Z" style="fill:#7E57C2;stroke:#263238;stroke-linecap:round;stroke-linejoin:round"></path></clipPath><clipPath id="freepik--clip-path-4--inject-21"><path d="M255.83,355.7c2.25-3.09,24.38-44.3,24.38-44.3L279.11,426h38.37l-3.23-71.86V309.72c0-15.76.85-41.08.85-41.08s-3.66-1.41-6.47.28c0,0-30.39,7.88-34.33,9s-7.6,2.82-7.88,4.51-28.55,49.29-31.93,54.92S228,348.6,228.58,352s10.37,10.19,16,9.91A14.08,14.08,0,0,0,255.83,355.7Z" style="fill:#7E57C2;stroke:#263238;stroke-linecap:round;stroke-linejoin:round"></path></clipPath><clipPath id="freepik--clip-path-5--inject-21"><path d="M349.7,272s1.13,11.53-3.09,29.54-5.35,26.73-5.91,33.76.56,21.1.56,21.1,4.78-40.8,7-47,3.37-11.54,11.53-16.89,13.22-11.81,13.51-12.94-.57-5.91-3.38-8.72-7.88-2-9.85-3.66-5.06-6.47-6.75-6.47-3.66,3.94-3.66,3.94Z" style="fill:#fff;stroke:#263238;stroke-linecap:round;stroke-linejoin:round"></path></clipPath><clipPath id="freepik--clip-path-6--inject-21"><path d="M317.35,262.73s-7.32,2.81-8.16,3.66-10.41,1.12-11.26,5.34-4.22,4.79-2,9.57,11.54,17.16,13.79,19.41-1.69,18.85-2,27.86,6.47,28.13,6.47,28.13l3.94-82.15Z" style="fill:#fff;stroke:#263238;stroke-linecap:round;stroke-linejoin:round"></path></clipPath><clipPath id="freepik--clip-path-7--inject-21"><path d="M309.47,232.06l-3.38-.28s-1.68,3.38.28,8.72a16.8,16.8,0,0,0,5.91,7.88s2,8.72,4.79,11.54,9.28,11.53,12.38,12.1,9.84,1.4,14.06,0,8.72-10.41,11-14.35,2.25-11.26,2.25-11.26,4.78-3.37,6.47-7.87,1.4-8.16.28-9.57-4.5-.28-4.5-.28,0-6.19-.28-12.1-5.91-8.72-18-6.75S314.82,218,312,222.5A18.14,18.14,0,0,0,309.47,232.06Z" style="fill:#fff;stroke:#263238;stroke-linecap:round;stroke-linejoin:round"></path></clipPath></defs><g id="freepik--background-simple--inject-21"><path d="M61.53,303.74s16.66,67.51,82.77,100,145.05,17.94,209.32,7.85,105.24-57.2,101-113.36S398.52,237.07,359.06,181,317.59,104,253.91,78.52,108.28,96.19,76.61,171.9,61.53,303.74,61.53,303.74Z" style="fill:#7E57C2"></path><path d="M61.53,303.74s16.66,67.51,82.77,100,145.05,17.94,209.32,7.85,105.24-57.2,101-113.36S398.52,237.07,359.06,181,317.59,104,253.91,78.52,108.28,96.19,76.61,171.9,61.53,303.74,61.53,303.74Z" style="fill:#fff;opacity:0.7000000000000001"></path></g><g id="freepik--Gears--inject-21"><path d="M350.26,183.5h0a4.68,4.68,0,0,0-4.69-4.68h-4.92a29.4,29.4,0,0,0-1.64-6.14l4.26-2.46a4.68,4.68,0,0,0,1.71-6.4h0a4.68,4.68,0,0,0-6.4-1.71l-4.25,2.45a30.25,30.25,0,0,0-4.49-4.49l2.45-4.25a4.68,4.68,0,0,0-1.71-6.4h0a4.68,4.68,0,0,0-6.4,1.71l-2.46,4.26a29.4,29.4,0,0,0-6.14-1.64v-4.92a4.69,4.69,0,0,0-4.68-4.69h0a4.69,4.69,0,0,0-4.69,4.69v4.92a29.4,29.4,0,0,0-6.14,1.64l-2.45-4.26a4.68,4.68,0,0,0-6.4-1.71h0a4.69,4.69,0,0,0-1.72,6.4l2.46,4.25a29.85,29.85,0,0,0-4.5,4.49l-4.25-2.45a4.68,4.68,0,0,0-6.4,1.71h0a4.69,4.69,0,0,0,1.71,6.4l4.26,2.46a30,30,0,0,0-1.64,6.14h-4.92a4.67,4.67,0,0,0-4.68,4.68h0a4.68,4.68,0,0,0,4.68,4.69h4.92a29.14,29.14,0,0,0,1.64,6.13l-4.26,2.46a4.69,4.69,0,0,0-1.71,6.4h0a4.69,4.69,0,0,0,6.4,1.72l4.25-2.46a29.92,29.92,0,0,0,4.5,4.5l-2.46,4.25a4.69,4.69,0,0,0,1.72,6.4h0a4.68,4.68,0,0,0,6.4-1.72l2.45-4.25a30,30,0,0,0,6.14,1.64v4.92a4.69,4.69,0,0,0,4.69,4.68h0a4.69,4.69,0,0,0,4.68-4.68v-4.92a30.68,30.68,0,0,0,6.14-1.64l2.46,4.25a4.68,4.68,0,0,0,6.4,1.72h0a4.68,4.68,0,0,0,1.71-6.4l-2.45-4.25a30.32,30.32,0,0,0,4.49-4.5l4.25,2.46a4.69,4.69,0,0,0,6.4-1.72h0a4.68,4.68,0,0,0-1.71-6.4L339,194.32a29.14,29.14,0,0,0,1.64-6.13h4.92A4.69,4.69,0,0,0,350.26,183.5Zm-18.91,0a20.45,20.45,0,1,1-20.45-20.45A20.47,20.47,0,0,1,331.35,183.5Z" style="fill:none;stroke:#000;stroke-miterlimit:10"></path><path d="M386.79,115h0a2.7,2.7,0,0,0-2.69-2.7h-2.83a17.51,17.51,0,0,0-.95-3.53l2.45-1.41a2.7,2.7,0,0,0,1-3.68h0a2.7,2.7,0,0,0-3.68-1l-2.45,1.41a17.48,17.48,0,0,0-2.58-2.58l1.41-2.45a2.7,2.7,0,0,0-1-3.68h0a2.7,2.7,0,0,0-3.68,1l-1.41,2.45a16.87,16.87,0,0,0-3.53-1V95.09a2.69,2.69,0,0,0-2.7-2.69h0a2.69,2.69,0,0,0-2.7,2.69v2.83a16.87,16.87,0,0,0-3.53,1l-1.41-2.45a2.7,2.7,0,0,0-3.68-1h0a2.7,2.7,0,0,0-1,3.68l1.41,2.45a17.48,17.48,0,0,0-2.58,2.58l-2.45-1.41a2.7,2.7,0,0,0-3.68,1h0a2.7,2.7,0,0,0,1,3.68l2.45,1.41a17.51,17.51,0,0,0-1,3.53H344.2a2.7,2.7,0,0,0-2.69,2.7h0a2.69,2.69,0,0,0,2.69,2.69H347a17.16,17.16,0,0,0,1,3.53l-2.45,1.42a2.7,2.7,0,0,0-1,3.68h0a2.7,2.7,0,0,0,3.68,1l2.45-1.42a17.55,17.55,0,0,0,2.58,2.59L351.84,131a2.7,2.7,0,0,0,1,3.68h0a2.7,2.7,0,0,0,3.68-1l1.41-2.45a17.51,17.51,0,0,0,3.53.95V135a2.7,2.7,0,0,0,2.7,2.7h0a2.7,2.7,0,0,0,2.7-2.7v-2.82a17.51,17.51,0,0,0,3.53-.95l1.41,2.45a2.7,2.7,0,0,0,3.68,1h0a2.7,2.7,0,0,0,1-3.68l-1.41-2.45a17.55,17.55,0,0,0,2.58-2.59l2.45,1.42a2.7,2.7,0,0,0,3.68-1h0a2.7,2.7,0,0,0-1-3.68l-2.45-1.42a17.16,17.16,0,0,0,.95-3.53h2.83A2.69,2.69,0,0,0,386.79,115Zm-10.88,0a11.76,11.76,0,1,1-11.76-11.76A11.77,11.77,0,0,1,375.91,115Z" style="fill:none;stroke:#000;stroke-miterlimit:10"></path><path d="M120.82,248h0a2,2,0,0,0-2-2h-2.09a12.71,12.71,0,0,0-.7-2.61l1.81-1a2,2,0,0,0,.73-2.72h0a2,2,0,0,0-2.72-.73l-1.81,1a13.26,13.26,0,0,0-1.91-1.91l1-1.8a2,2,0,0,0-.72-2.72h0a2,2,0,0,0-2.72.73l-1,1.8a12.53,12.53,0,0,0-2.61-.69v-2.09a2,2,0,0,0-2-2h0a2,2,0,0,0-2,2v2.09a12.87,12.87,0,0,0-2.61.69l-1-1.8a2,2,0,0,0-2.72-.73h0a2,2,0,0,0-.73,2.72l1,1.8a12.32,12.32,0,0,0-1.91,1.91l-1.81-1a2,2,0,0,0-2.72.73h0a2,2,0,0,0,.73,2.72l1.81,1a12.71,12.71,0,0,0-.7,2.61H89.36a2,2,0,0,0-2,2h0a2,2,0,0,0,2,2h2.09a12.54,12.54,0,0,0,.7,2.61l-1.81,1a2,2,0,0,0-.73,2.72h0a2,2,0,0,0,2.72.73l1.81-1A12.71,12.71,0,0,0,96,258l-1,1.81a2,2,0,0,0,.73,2.72h0a2,2,0,0,0,2.72-.73l1-1.81a13.58,13.58,0,0,0,2.61.7v2.09a2,2,0,0,0,2,2h0a2,2,0,0,0,2-2v-2.09a13.2,13.2,0,0,0,2.61-.7l1,1.81a2,2,0,0,0,2.72.73h0a2,2,0,0,0,.72-2.72l-1-1.81a13.26,13.26,0,0,0,1.91-1.91l1.81,1a2,2,0,0,0,2.72-.73h0a2,2,0,0,0-.73-2.72l-1.81-1a12.54,12.54,0,0,0,.7-2.61h2.09A2,2,0,0,0,120.82,248Zm-8,0a8.69,8.69,0,1,1-8.69-8.69A8.7,8.7,0,0,1,112.78,248Z" style="fill:none;stroke:#000;stroke-miterlimit:10"></path><path d="M406.57,146.65h0a2,2,0,0,0-2-2h-2.09a12.53,12.53,0,0,0-.69-2.61l1.81-1a2,2,0,0,0,.72-2.72h0a2,2,0,0,0-2.72-.73l-1.8,1a13.26,13.26,0,0,0-1.91-1.91l1-1.81a2,2,0,0,0-.73-2.72h0a2,2,0,0,0-2.72.73l-1,1.81a12.69,12.69,0,0,0-2.61-.69v-2.09a2,2,0,0,0-2-2h0a2,2,0,0,0-2,2V134a12.53,12.53,0,0,0-2.61.69l-1-1.81a2,2,0,0,0-2.72-.73h0a2,2,0,0,0-.73,2.72l1,1.81a13.26,13.26,0,0,0-1.91,1.91l-1.8-1a2,2,0,0,0-2.72.73h0a2,2,0,0,0,.72,2.72l1.81,1a12.53,12.53,0,0,0-.69,2.61h-2.09a2,2,0,0,0-2,2h0a2,2,0,0,0,2,2h2.09a12.69,12.69,0,0,0,.69,2.61l-1.81,1a2,2,0,0,0-.72,2.72h0a2,2,0,0,0,2.72.73l1.8-1a13.26,13.26,0,0,0,1.91,1.91l-1,1.8a2,2,0,0,0,.73,2.72h0a2,2,0,0,0,2.72-.73l1-1.8a12.53,12.53,0,0,0,2.61.69v2.09a2,2,0,0,0,2,2h0a2,2,0,0,0,2-2v-2.09a12.69,12.69,0,0,0,2.61-.69l1,1.8a2,2,0,0,0,2.72.73h0a2,2,0,0,0,.73-2.72l-1-1.8a13.26,13.26,0,0,0,1.91-1.91l1.8,1a2,2,0,0,0,2.72-.73h0a2,2,0,0,0-.72-2.72l-1.81-1a12.69,12.69,0,0,0,.69-2.61h2.09A2,2,0,0,0,406.57,146.65Zm-8,0a8.69,8.69,0,1,1-8.69-8.69A8.7,8.7,0,0,1,398.54,146.65Z" style="fill:none;stroke:#000;stroke-miterlimit:10"></path></g><g id="freepik--Plants--inject-21"><path d="M71.21,290.9c-6.45-4.08-7.5-11.12-7.91-19.76C63,264,67.81,251.23,76.18,247.38c1.4-.64,1.47-.51,1.74.66,1.65,7.12,3.23,18.11,2,24.8C78.34,280.9,75,284.41,71.21,290.9Z" style="fill:none;stroke:#263238;stroke-linecap:round;stroke-linejoin:round"></path><path d="M116.87,357.91c-2.26-3.36-2.28-7.6-2.06-11.4S122.12,326,127.13,330s.17,18.53-1.72,22.91S120.5,357.37,116.87,357.91Z" style="fill:none;stroke:#263238;stroke-linecap:round;stroke-linejoin:round"></path><path d="M131,386.9c-2.15-3.45-2.19-7.86-1.93-11.66s7.47-20.15,12.43-16.17.11,18.62-1.86,23S134.65,386.49,131,386.9Z" style="fill:none;stroke:#263238;stroke-linecap:round;stroke-linejoin:round"></path><path d="M137,406.19c-.12-4.12,2.11-7.92,4.27-11.11s16.6-13.57,18.87-7.61-9.29,16-13.19,18.84S140.39,407.68,137,406.19Z" style="fill:none;stroke:#263238;stroke-linecap:round;stroke-linejoin:round"></path><path d="M116.05,375.16c-3.52,2.1-7.81,1.86-11.63,1.49s-19.59-8.37-15.44-13,18.36.84,22.62,2.83S115.79,371.57,116.05,375.16Z" style="fill:none;stroke:#263238;stroke-linecap:round;stroke-linejoin:round"></path><path d="M126.08,405.22c-3.58,1.95-7.89,1.66-11.68,1.1s-19.43-9-15.1-13.66,18.42,1.33,22.62,3.6S126,401.55,126.08,405.22Z" style="fill:none;stroke:#263238;stroke-linecap:round;stroke-linejoin:round"></path><path d="M99,326.23c-3.74-.16-3.46-8.62-3.61-11.3s5.32-20.89,10-16.55,2.34,17.62.84,21.8S102.74,326.39,99,326.23Z" style="fill:none;stroke:#263238;stroke-linecap:round;stroke-linejoin:round"></path><path d="M76.24,318.28c.67-4.37-1.68-8.45-4.9-11.24s-17.05-8-19.61-3.52,8.06,10.9,11.34,12.88S72.42,320.76,76.24,318.28Z" style="fill:none;stroke:#263238;stroke-linecap:round;stroke-linejoin:round"></path><path d="M97.81,350c.4-3.74-4.59-7.26-6.54-9.46s-15.19-9-16.17-4.36,9.63,10,12.55,12.35S94.71,351.91,97.81,350Z" style="fill:none;stroke:#263238;stroke-linecap:round;stroke-linejoin:round"></path><path d="M80.09,302.55c-2-3.56-1.74-7.88-1.21-11.68s8.86-19.48,13.53-15.2-1.17,18.38-3.4,22.58S83.76,302.35,80.09,302.55Z" style="fill:none;stroke:#263238;stroke-linecap:round;stroke-linejoin:round"></path><path d="M130.7,426c2.42-21.59,3.38-22.2-8.19-47.69S65.6,311.44,71,274.81" style="fill:none;stroke:#263238;stroke-linecap:round;stroke-linejoin:round"></path><path d="M84.87,322.26c-7.39-3.74-14.53-7.89-21.69-12.05" style="fill:none;stroke:#263238;stroke-linecap:round;stroke-linejoin:round"></path><path d="M96.23,340c1.39-8.89,3.09-17.74,4.57-26.62" style="fill:none;stroke:#263238;stroke-linecap:round;stroke-linejoin:round"></path><path d="M109.25,356.65c-7.63-4.63-15.52-8.77-23.14-13.44" style="fill:none;stroke:#263238;stroke-linecap:round;stroke-linejoin:round"></path><path d="M77.71,308.52,85.2,289.3" style="fill:none;stroke:#263238;stroke-linecap:round;stroke-linejoin:round"></path><path d="M115,364c2-6.55,4.06-13.09,6-19.65" style="fill:none;stroke:#263238;stroke-linecap:round;stroke-linejoin:round"></path><path d="M128.93,393c2.21-6.57,4.27-13.18,6.33-19.8" style="fill:none;stroke:#263238;stroke-linecap:round;stroke-linejoin:round"></path><path d="M132.15,410.47q7.75-6.95,15.46-14" style="fill:none;stroke:#263238;stroke-linecap:round;stroke-linejoin:round"></path><path d="M122.06,377.42q-9.63-3.59-19.34-6.94" style="fill:none;stroke:#263238;stroke-linecap:round;stroke-linejoin:round"></path><path d="M132,407.67q-9.54-3.89-19.1-7.68" style="fill:none;stroke:#263238;stroke-linecap:round;stroke-linejoin:round"></path><path d="M414,242.27c7.64-6,8-15.09,7.42-26.11-.52-9.06-8.37-24.65-19.49-28.42-1.87-.64-1.93-.46-2.12,1.06-1.15,9.26-1.7,23.41.81,31.72C403.65,230.53,408.32,234.55,414,242.27Z" style="fill:none;stroke:#263238;stroke-linecap:round;stroke-linejoin:round"></path><path d="M365,333.32c2.41-4.56,1.88-9.94,1.09-14.73s-12-25-17.81-19.37,2.24,23.52,5.21,28.83S360.31,333.11,365,333.32Z" style="fill:none;stroke:#263238;stroke-linecap:round;stroke-linejoin:round"></path><path d="M350.93,372c2.27-4.66,1.73-10.25.9-15s-12.15-24.56-17.9-18.86,2.32,23.63,5.39,28.91S346.23,371.93,350.93,372Z" style="fill:none;stroke:#263238;stroke-linecap:round;stroke-linejoin:round"></path><path d="M345.86,397.22c-.39-5.23-3.72-9.76-6.88-13.52s-22.86-15-25-7.14,13.91,19.12,19.22,22.14S341.77,399.57,345.86,397.22Z" style="fill:none;stroke:#263238;stroke-linecap:round;stroke-linejoin:round"></path><path d="M368.32,355.09c4.75,2.2,10.15,1.33,14.95.35s23.74-13.21,17.85-18.58-23.17,3.49-28.31,6.58S368.17,350.51,368.32,355.09Z" style="fill:none;stroke:#263238;stroke-linecap:round;stroke-linejoin:round"></path><path d="M359.59,394.56c4.8,2,10.23,1,15-.16s23.45-14,17.34-19.33-23.18,4.13-28.2,7.56S359.26,389.88,359.59,394.56Z" style="fill:none;stroke:#263238;stroke-linecap:round;stroke-linejoin:round"></path><path d="M383.46,290.77c4.72-.7,3.24-11.39,3.08-14.81s-9.52-25.79-14.83-19.67-.63,22.66,1.83,27.77S378.74,291.47,383.46,290.77Z" style="fill:none;stroke:#263238;stroke-linecap:round;stroke-linejoin:round"></path><path d="M411.27,277.67c-1.43-5.45,1-10.95,4.73-14.91s20.56-12.43,24.4-7.07-8.77,14.91-12.68,17.84S416.44,280.31,411.27,277.67Z" style="fill:none;stroke:#263238;stroke-linecap:round;stroke-linejoin:round"></path><path d="M388.12,320.82c-1-4.7,4.86-9.82,7.05-12.88s18.06-13.46,19.93-7.67-10.89,13.94-14.28,17.34S392.31,322.77,388.12,320.82Z" style="fill:none;stroke:#263238;stroke-linecap:round;stroke-linejoin:round"></path><path d="M404.31,258.23c2-4.79,1.16-10.22,0-15s-13.83-23.53-19.19-17.49S389,248.93,392.42,254,399.63,258.47,404.31,258.23Z" style="fill:none;stroke:#263238;stroke-linecap:round;stroke-linejoin:round"></path><path d="M356.48,421.56c-5.93-27.07-7.22-27.71,4.07-61.58s63.31-92.4,51.57-138.14" style="fill:none;stroke:#263238;stroke-linecap:round;stroke-linejoin:round"></path><path d="M400.86,283.86c8.87-5.72,17.38-11.93,25.9-18.16" style="fill:none;stroke:#263238;stroke-linecap:round;stroke-linejoin:round"></path><path d="M388.8,307.89c-2.94-11.09-6.27-22.09-9.33-33.15" style="fill:none;stroke:#263238;stroke-linecap:round;stroke-linejoin:round"></path><path d="M374.5,330.72c9.05-6.89,18.52-13.19,27.56-20.12" style="fill:none;stroke:#263238;stroke-linecap:round;stroke-linejoin:round"></path><path d="M408.11,265.48l-12-23.38" style="fill:none;stroke:#263238;stroke-linecap:round;stroke-linejoin:round"></path><path d="M368.24,340.75c-3.41-8-6.89-16.06-10.26-24.12" style="fill:none;stroke:#263238;stroke-linecap:round;stroke-linejoin:round"></path><path d="M354.36,379.47c-3.67-8-7.17-16.15-10.65-24.28" style="fill:none;stroke:#263238;stroke-linecap:round;stroke-linejoin:round"></path><path d="M352.58,402q-10.75-7.78-21.46-15.66" style="fill:none;stroke:#263238;stroke-linecap:round;stroke-linejoin:round"></path><path d="M361,358.75q11.73-5.82,23.6-11.36" style="fill:none;stroke:#263238;stroke-linecap:round;stroke-linejoin:round"></path><path d="M352.4,398.44c7.72-4.13,15.47-8.2,23.21-12.28" style="fill:none;stroke:#263238;stroke-linecap:round;stroke-linejoin:round"></path></g><g id="freepik--Device--inject-21"><rect x="136.13" y="95.21" width="159.42" height="300.23" rx="8.17" style="fill:#263238;opacity:0.2"></rect><rect x="127.13" y="87" width="158.42" height="299.23" rx="7.67" style="fill:#263238"></rect><g style="clip-path:url(#freepik--clip-path--inject-21)"><path d="M228.33,87H134.8a7.68,7.68,0,0,0-7.67,7.67V188.2Z" style="fill:#fff;opacity:0.2"></path></g><rect x="127.13" y="87" width="158.42" height="299.23" rx="7.67" style="fill:none;stroke:#263238;stroke-linecap:round;stroke-linejoin:round"></rect><line x1="264.71" y1="96.66" x2="246.03" y2="115.33" style="fill:none;stroke:#fff;stroke-linecap:round;stroke-linejoin:round"></line><line x1="268.53" y1="92.83" x2="266.83" y2="94.54" style="fill:none;stroke:#fff;stroke-linecap:round;stroke-linejoin:round"></line><line x1="272.33" y1="92.83" x2="249.84" y2="115.33" style="fill:none;stroke:#fff;stroke-linecap:round;stroke-linejoin:round"></line><line x1="174.04" y1="360.66" x2="155.37" y2="379.33" style="fill:none;stroke:#fff;stroke-linecap:round;stroke-linejoin:round"></line><line x1="177.87" y1="356.83" x2="176.16" y2="358.54" style="fill:none;stroke:#fff;stroke-linecap:round;stroke-linejoin:round"></line><path d="M222,103.51H190.65a2.14,2.14,0,0,1-2.14-2.14h0a2.14,2.14,0,0,1,2.14-2.14H222a2.14,2.14,0,0,1,2.14,2.14h0A2.14,2.14,0,0,1,222,103.51Z" style="fill:#fff"></path><path d="M214.9,366.56a8.56,8.56,0,1,0-8.56,8.56A8.56,8.56,0,0,0,214.9,366.56Z" style="fill:#fff"></path><rect x="202" y="362.22" width="8.68" height="8.68" style="fill:#263238"></rect><rect x="134.17" y="119.86" width="144.34" height="233.52" style="fill:#fff;stroke:#263238;stroke-linecap:round;stroke-linejoin:round"></rect><path d="M270,131.77v-1.65h-1.69A5.64,5.64,0,0,0,268,129l1.46-.84-.82-1.44-1.47.85a5.36,5.36,0,0,0-.79-.79l.84-1.47-1.43-.83-.85,1.47a5.54,5.54,0,0,0-1.08-.29V124H262.2v1.69a5.74,5.74,0,0,0-1.08.29l-.85-1.47-1.43.83.85,1.47a5.43,5.43,0,0,0-.8.79l-1.46-.85-.83,1.44,1.47.84a5,5,0,0,0-.29,1.09h-1.7v1.65h1.7a4.77,4.77,0,0,0,.29,1.08l-1.47.85.83,1.44,1.46-.85a5.43,5.43,0,0,0,.8.79l-.85,1.47,1.43.83.85-1.47a5.74,5.74,0,0,0,1.08.29v1.69h1.66V136.2a5.54,5.54,0,0,0,1.08-.29l.85,1.47,1.43-.83-.84-1.47a5.36,5.36,0,0,0,.79-.79l1.47.85.82-1.44-1.46-.85a5.36,5.36,0,0,0,.29-1.08Zm-3.34-.83a3.61,3.61,0,1,1-3.61-3.61A3.61,3.61,0,0,1,266.64,130.94Z" style="fill:#ccc"></path><path d="M156.2,130.17c0,1.55-1.11,2.47-3,2.47h-2.09V135h-.54V127.7h2.63C155.09,127.7,156.2,128.62,156.2,130.17Zm-.55,0c0-1.26-.83-2-2.41-2h-2.09v4h2.09C154.82,132.16,155.65,131.43,155.65,130.17Z" style="fill:#263238"></path><path d="M160.25,129.52V130h-.12a1.89,1.89,0,0,0-1.94,2.16V135h-.53v-5.47h.51v1.19A2.08,2.08,0,0,1,160.25,129.52Z" style="fill:#263238"></path><path d="M166.27,132.43h-4.71a2.34,2.34,0,0,0,4.07,1.41l.3.35a2.59,2.59,0,0,1-2.06.89,2.68,2.68,0,0,1-2.82-2.78,2.62,2.62,0,1,1,5.23,0S166.27,132.38,166.27,132.43Zm-4.7-.41h4.19a2.1,2.1,0,0,0-4.19,0Z" style="fill:#263238"></path><path d="M168.52,128.77v.8h1.75V130h-1.74v5H168v-5h-1v-.45h1v-.84a1.4,1.4,0,0,1,1.52-1.51,1.59,1.59,0,0,1,1.08.36l-.21.39a1.24,1.24,0,0,0-.84-.3C168.86,127.67,168.52,128.05,168.52,128.77Z" style="fill:#263238"></path><path d="M175.86,132.43h-4.7a2.34,2.34,0,0,0,4.07,1.41l.3.35a2.61,2.61,0,0,1-2.07.89,2.69,2.69,0,0,1-2.82-2.78,2.63,2.63,0,0,1,2.63-2.78,2.6,2.6,0,0,1,2.61,2.76S175.86,132.38,175.86,132.43Zm-4.69-.41h4.19a2.1,2.1,0,0,0-4.19,0Z" style="fill:#263238"></path><path d="M180.09,129.52V130H180a1.89,1.89,0,0,0-1.94,2.16V135h-.52v-5.47h.5v1.19A2.1,2.1,0,0,1,180.09,129.52Z" style="fill:#263238"></path><path d="M186.1,132.43h-4.71a2.34,2.34,0,0,0,4.07,1.41l.31.35a2.63,2.63,0,0,1-2.07.89,2.68,2.68,0,0,1-2.82-2.78,2.62,2.62,0,1,1,5.23,0S186.1,132.38,186.1,132.43Zm-4.7-.41h4.2a2.1,2.1,0,0,0-4.2,0Z" style="fill:#263238"></path><path d="M192.63,131.84V135h-.53v-3.16a1.65,1.65,0,0,0-1.77-1.88,2,2,0,0,0-2.07,2.13V135h-.53v-5.47h.51v1.18a2.26,2.26,0,0,1,2.17-1.23A2.08,2.08,0,0,1,192.63,131.84Z" style="fill:#263238"></path><path d="M194.2,132.3a2.67,2.67,0,0,1,2.76-2.78,2.41,2.41,0,0,1,2.08,1l-.39.28A2,2,0,0,0,197,130a2.31,2.31,0,0,0,0,4.61,2,2,0,0,0,1.69-.82l.39.28a2.44,2.44,0,0,1-2.08,1A2.67,2.67,0,0,1,194.2,132.3Z" style="fill:#263238"></path><path d="M205.14,132.43h-4.71a2.34,2.34,0,0,0,4.07,1.41l.3.35a2.59,2.59,0,0,1-2.06.89,2.68,2.68,0,0,1-2.82-2.78,2.62,2.62,0,1,1,5.23,0S205.14,132.38,205.14,132.43Zm-4.7-.41h4.19a2.1,2.1,0,0,0-4.19,0Z" style="fill:#263238"></path><path d="M206,134.38l.24-.42a3.18,3.18,0,0,0,2,.66c1.16,0,1.62-.41,1.62-1,0-1.59-3.63-.42-3.63-2.57,0-.82.69-1.5,2.08-1.5a3.31,3.31,0,0,1,1.87.54l-.24.42a2.78,2.78,0,0,0-1.64-.49c-1.07,0-1.54.44-1.54,1,0,1.65,3.62.49,3.62,2.57,0,.89-.76,1.5-2.16,1.5A3.42,3.42,0,0,1,206,134.38Z" style="fill:#263238"></path><path d="M145.65,171.09H141.4l-.94,2.07h-.57l3.37-7.34h.54l3.37,7.34h-.58Zm-.2-.45-1.93-4.23-1.92,4.23Z" style="fill:#263238"></path><path d="M153,167.69v5.47h-.51V172a2.15,2.15,0,0,1-2.06,1.21,2.09,2.09,0,0,1-2.29-2.32v-3.19h.53v3.15a1.67,1.67,0,0,0,1.8,1.89,1.92,1.92,0,0,0,2-2.13v-2.91Z" style="fill:#263238"></path><path d="M158,172.81a1.61,1.61,0,0,1-1.12.39,1.35,1.35,0,0,1-1.49-1.49v-3.57h-1v-.45h1v-1.2h.52v1.2h1.74v.45h-1.74v3.52c0,.7.35,1.09,1,1.09a1.24,1.24,0,0,0,.85-.3Z" style="fill:#263238"></path><path d="M158.61,170.42a2.74,2.74,0,1,1,2.73,2.78A2.66,2.66,0,0,1,158.61,170.42Zm4.94,0a2.21,2.21,0,1,0-2.21,2.31A2.17,2.17,0,0,0,163.55,170.42Z" style="fill:#263238"></path><path d="M165.35,170.11H168v.47h-2.69Z" style="fill:#263238"></path><path d="M173.75,169.69v3.47h-.5v-1a2.11,2.11,0,0,1-2,1c-1.23,0-2-.63-2-1.56s.52-1.53,2-1.53h1.88v-.44a1.43,1.43,0,0,0-1.63-1.56,2.87,2.87,0,0,0-1.89.69l-.26-.38a3.35,3.35,0,0,1,2.19-.77A1.86,1.86,0,0,1,173.75,169.69Zm-.52,1.86v-1h-1.87c-1.13,0-1.53.47-1.53,1.1s.56,1.15,1.52,1.15A1.89,1.89,0,0,0,173.23,171.55Z" style="fill:#263238"></path><path d="M175.91,165.38h.52v7.78h-.52Z" style="fill:#263238"></path><path d="M178.47,165.94a.43.43,0,0,1,.43-.43.43.43,0,1,1-.43.43Zm.17,1.75h.52v5.47h-.52Z" style="fill:#263238"></path><path d="M186.3,167.69v4.88c0,1.84-.89,2.67-2.65,2.67a3.65,3.65,0,0,1-2.51-.87l.29-.4a3.24,3.24,0,0,0,2.21.79c1.46,0,2.14-.67,2.14-2.12v-.93A2.52,2.52,0,0,1,183.5,173a2.66,2.66,0,1,1,0-5.31,2.52,2.52,0,0,1,2.3,1.27v-1.23Zm-.51,2.61a2.24,2.24,0,1,0-2.24,2.19A2.12,2.12,0,0,0,185.79,170.3Z" style="fill:#263238"></path><path d="M193.42,170v3.2h-.53V170a1.65,1.65,0,0,0-1.77-1.88,2,2,0,0,0-2.08,2.13v2.91h-.52v-5.47h.5v1.18a2.27,2.27,0,0,1,2.17-1.22A2.07,2.07,0,0,1,193.42,170Z" style="fill:#263238"></path><path d="M140.37,204.07l.24-.4a3.46,3.46,0,0,0,2.42.92c1.47,0,2.12-.63,2.12-1.43,0-2.2-4.58-.88-4.58-3.59,0-1,.79-1.95,2.6-1.95a4,4,0,0,1,2.21.66l-.2.43a3.61,3.61,0,0,0-2-.61c-1.43,0-2.07.66-2.07,1.46,0,2.2,4.58.9,4.58,3.57,0,1-.83,1.94-2.64,1.94A3.74,3.74,0,0,1,140.37,204.07Z" style="fill:#263238"></path><path d="M152.22,201.82V205h-.52v-3.15a1.66,1.66,0,0,0-1.78-1.89,2,2,0,0,0-2.07,2.13V205h-.52v-7.77h.52v3.44A2.27,2.27,0,0,1,150,199.5,2.08,2.08,0,0,1,152.22,201.82Z" style="fill:#263238"></path><path d="M158.33,201.54V205h-.5v-1a2.12,2.12,0,0,1-2,1c-1.22,0-2-.63-2-1.57s.53-1.53,2.05-1.53h1.87v-.44a1.42,1.42,0,0,0-1.62-1.56,2.83,2.83,0,0,0-1.89.69l-.26-.37a3.31,3.31,0,0,1,2.19-.78A1.86,1.86,0,0,1,158.33,201.54Zm-.53,1.86v-1h-1.86c-1.13,0-1.53.47-1.53,1.1s.55,1.16,1.52,1.16A1.86,1.86,0,0,0,157.8,203.4Z" style="fill:#263238"></path><path d="M162.43,202.09l-1.42,1.3V205h-.53v-7.77H161v5.5l3.5-3.2h.67l-2.36,2.21,2.59,3.26h-.65Z" style="fill:#263238"></path><path d="M171.05,202.4h-4.71a2.35,2.35,0,0,0,4.07,1.42l.3.34a2.6,2.6,0,0,1-2.06.9,2.69,2.69,0,0,1-2.82-2.78,2.62,2.62,0,1,1,5.23,0S171.05,202.35,171.05,202.4Zm-4.7-.41h4.19a2.1,2.1,0,0,0-4.19,0Z" style="fill:#263238"></path><path d="M145.65,234.8H141.4l-.94,2.07h-.57l3.37-7.34h.54l3.37,7.34h-.58Zm-.2-.45-1.93-4.23-1.92,4.23Z" style="fill:#263238"></path><path d="M153.78,234.13a2.64,2.64,0,0,1-2.7,2.78,2.46,2.46,0,0,1-2.23-1.29v3.28h-.52v-7.5h.5v1.29a2.46,2.46,0,0,1,2.25-1.34A2.65,2.65,0,0,1,153.78,234.13Zm-.52,0a2.21,2.21,0,1,0-2.21,2.31A2.18,2.18,0,0,0,153.26,234.13Z" style="fill:#263238"></path><path d="M160.85,234.13a2.64,2.64,0,0,1-2.7,2.78,2.45,2.45,0,0,1-2.22-1.29v3.28h-.53v-7.5h.51v1.29a2.44,2.44,0,0,1,2.24-1.34A2.65,2.65,0,0,1,160.85,234.13Zm-.52,0a2.21,2.21,0,1,0-2.21,2.31A2.17,2.17,0,0,0,160.33,234.13Z" style="fill:#263238"></path><path d="M164.36,236.21l.24-.42a3.22,3.22,0,0,0,2,.66c1.16,0,1.62-.41,1.62-1,0-1.59-3.63-.42-3.63-2.57,0-.83.69-1.5,2.07-1.5a3.32,3.32,0,0,1,1.88.54l-.24.42a2.8,2.8,0,0,0-1.65-.5c-1.06,0-1.54.45-1.54,1,0,1.65,3.63.48,3.63,2.57,0,.89-.76,1.5-2.16,1.5A3.42,3.42,0,0,1,164.36,236.21Z" style="fill:#263238"></path><path d="M175,231.4v5.47h-.51v-1.18a2.14,2.14,0,0,1-2.06,1.22,2.1,2.1,0,0,1-2.29-2.32V231.4h.53v3.15a1.67,1.67,0,0,0,1.8,1.89,1.92,1.92,0,0,0,2-2.13V231.4Z" style="fill:#263238"></path><path d="M182.11,231.4v4.88a2.32,2.32,0,0,1-2.65,2.66,3.61,3.61,0,0,1-2.51-.87l.29-.4a3.2,3.2,0,0,0,2.21.8,1.86,1.86,0,0,0,2.14-2.13v-.92a2.52,2.52,0,0,1-2.28,1.25,2.66,2.66,0,1,1,0-5.32,2.51,2.51,0,0,1,2.3,1.28V231.4ZM181.6,234a2.24,2.24,0,1,0-2.25,2.19A2.13,2.13,0,0,0,181.6,234Z" style="fill:#263238"></path><path d="M189.26,231.4v4.88a2.33,2.33,0,0,1-2.66,2.66,3.58,3.58,0,0,1-2.5-.87l.28-.4a3.22,3.22,0,0,0,2.21.8,1.86,1.86,0,0,0,2.14-2.13v-.92a2.52,2.52,0,0,1-2.27,1.25,2.66,2.66,0,1,1,0-5.32,2.5,2.5,0,0,1,2.29,1.28V231.4Zm-.52,2.61a2.24,2.24,0,1,0-2.24,2.19A2.12,2.12,0,0,0,188.74,234Z" style="fill:#263238"></path><path d="M196.1,234.26h-4.71a2.34,2.34,0,0,0,4.07,1.41l.3.35a2.59,2.59,0,0,1-2.06.89,2.68,2.68,0,0,1-2.82-2.78,2.62,2.62,0,1,1,5.23,0S196.1,234.21,196.1,234.26Zm-4.7-.41h4.2a2.1,2.1,0,0,0-4.2,0Z" style="fill:#263238"></path><path d="M196.92,236.21l.24-.42a3.24,3.24,0,0,0,2,.66c1.16,0,1.62-.41,1.62-1,0-1.59-3.63-.42-3.63-2.57,0-.83.69-1.5,2.08-1.5a3.31,3.31,0,0,1,1.87.54l-.24.42a2.79,2.79,0,0,0-1.64-.5c-1.07,0-1.54.45-1.54,1,0,1.65,3.62.48,3.62,2.57,0,.89-.76,1.5-2.16,1.5A3.42,3.42,0,0,1,196.92,236.21Z" style="fill:#263238"></path><path d="M205.45,236.52a1.66,1.66,0,0,1-1.12.39,1.36,1.36,0,0,1-1.49-1.49v-3.57h-1v-.45h1v-1.2h.53v1.2h1.74v.45h-1.74v3.52c0,.7.34,1.09,1,1.09a1.25,1.25,0,0,0,.85-.31Z" style="fill:#263238"></path><path d="M206.74,229.65a.43.43,0,0,1,.43-.43.42.42,0,0,1,.43.41.42.42,0,0,1-.43.43A.42.42,0,0,1,206.74,229.65Zm.17,1.75h.52v5.47h-.52Z" style="fill:#263238"></path><path d="M209,234.13a2.74,2.74,0,1,1,2.74,2.78A2.67,2.67,0,0,1,209,234.13Zm4.94,0a2.2,2.2,0,1,0-2.2,2.31A2.17,2.17,0,0,0,214,234.13Z" style="fill:#263238"></path><path d="M221,233.67v3.2h-.52v-3.16a1.65,1.65,0,0,0-1.77-1.88,2,2,0,0,0-2.08,2.12v2.92h-.52V231.4h.5v1.18a2.25,2.25,0,0,1,2.17-1.23A2.08,2.08,0,0,1,221,233.67Z" style="fill:#263238"></path><path d="M222.38,236.21l.24-.42a3.24,3.24,0,0,0,2,.66c1.16,0,1.62-.41,1.62-1,0-1.59-3.63-.42-3.63-2.57,0-.83.69-1.5,2.08-1.5a3.31,3.31,0,0,1,1.87.54l-.24.42a2.79,2.79,0,0,0-1.64-.5c-1.07,0-1.54.45-1.54,1,0,1.65,3.62.48,3.62,2.57,0,.89-.76,1.5-2.16,1.5A3.42,3.42,0,0,1,222.38,236.21Z" style="fill:#263238"></path><path d="M147.09,261.38v7.34h-.54v-3.49h-4.9v3.49h-.54v-7.34h.54v3.38h4.9v-3.38Z" style="fill:#263238"></path><path d="M148.88,266a2.74,2.74,0,1,1,2.73,2.77A2.66,2.66,0,0,1,148.88,266Zm4.93,0a2.2,2.2,0,1,0-2.2,2.3A2.17,2.17,0,0,0,153.81,266Z" style="fill:#263238"></path><path d="M165,265.52v3.2h-.52v-3.15c0-1.24-.64-1.89-1.71-1.89a1.92,1.92,0,0,0-2,2.13v2.91h-.53v-3.15c0-1.24-.64-1.89-1.7-1.89a1.93,1.93,0,0,0-2,2.13v2.91H156v-5.47h.5v1.17a2.18,2.18,0,0,1,2.1-1.21,1.94,1.94,0,0,1,2,1.32,2.3,2.3,0,0,1,2.21-1.32A2,2,0,0,1,165,265.52Z" style="fill:#263238"></path><path d="M171.75,266.11H167a2.35,2.35,0,0,0,4.07,1.42l.3.34a2.59,2.59,0,0,1-2.06.89,2.68,2.68,0,0,1-2.82-2.77,2.61,2.61,0,0,1,2.62-2.78,2.59,2.59,0,0,1,2.61,2.75C171.76,266,171.75,266.06,171.75,266.11Zm-4.7-.41h4.2a2.1,2.1,0,0,0-4.2,0Z" style="fill:#263238"></path><path d="M175.27,268.06l.24-.42a3.16,3.16,0,0,0,2,.66c1.15,0,1.61-.41,1.61-1,0-1.59-3.62-.41-3.62-2.56,0-.83.69-1.5,2.07-1.5a3.42,3.42,0,0,1,1.88.53l-.24.42a2.86,2.86,0,0,0-1.65-.49c-1.07,0-1.54.44-1.54,1,0,1.64,3.63.48,3.63,2.56,0,.9-.77,1.5-2.16,1.5A3.42,3.42,0,0,1,175.27,268.06Z" style="fill:#263238"></path><path d="M180.48,266a2.67,2.67,0,0,1,2.77-2.78,2.41,2.41,0,0,1,2.08,1l-.39.29a2,2,0,0,0-1.69-.82,2.31,2.31,0,0,0,0,4.61,2,2,0,0,0,1.69-.82l.39.29a2.43,2.43,0,0,1-2.08,1A2.67,2.67,0,0,1,180.48,266Z" style="fill:#263238"></path><path d="M189.49,263.21v.51h-.13a1.89,1.89,0,0,0-1.94,2.16v2.85h-.52v-5.47h.5v1.19A2.09,2.09,0,0,1,189.49,263.21Z" style="fill:#263238"></path><path d="M195.5,266.11h-4.71a2.35,2.35,0,0,0,4.07,1.42l.31.34a2.63,2.63,0,0,1-2.07.89,2.68,2.68,0,0,1-2.82-2.77,2.61,2.61,0,0,1,2.62-2.78,2.59,2.59,0,0,1,2.61,2.75C195.51,266,195.5,266.06,195.5,266.11Zm-4.7-.41H195a2.1,2.1,0,0,0-4.2,0Z" style="fill:#263238"></path><path d="M201.76,266.11h-4.71a2.35,2.35,0,0,0,4.07,1.42l.3.34a2.61,2.61,0,0,1-2.06.89,2.68,2.68,0,0,1-2.82-2.77,2.61,2.61,0,0,1,2.62-2.78,2.59,2.59,0,0,1,2.61,2.75C201.77,266,201.76,266.06,201.76,266.11Zm-4.7-.41h4.19a2.1,2.1,0,0,0-4.19,0Z" style="fill:#263238"></path><path d="M208.28,265.52v3.2h-.52v-3.15a1.66,1.66,0,0,0-1.77-1.89,2,2,0,0,0-2.08,2.13v2.91h-.52v-5.47h.5v1.18a2.26,2.26,0,0,1,2.17-1.22A2.07,2.07,0,0,1,208.28,265.52Z" style="fill:#263238"></path><path d="M213.13,260.94h.53v7.78h-.53Z" style="fill:#263238"></path><path d="M215.27,266a2.74,2.74,0,1,1,2.73,2.77A2.66,2.66,0,0,1,215.27,266Zm4.94,0a2.21,2.21,0,1,0-2.21,2.3A2.18,2.18,0,0,0,220.21,266Z" style="fill:#263238"></path><path d="M221.76,266a2.74,2.74,0,1,1,2.74,2.77A2.67,2.67,0,0,1,221.76,266Zm4.94,0a2.2,2.2,0,1,0-2.2,2.3A2.17,2.17,0,0,0,226.7,266Z" style="fill:#263238"></path><path d="M234.31,266a2.65,2.65,0,0,1-2.71,2.77,2.45,2.45,0,0,1-2.22-1.29v3.29h-.52v-7.51h.5v1.29a2.44,2.44,0,0,1,2.24-1.33A2.66,2.66,0,0,1,234.31,266Zm-.53,0a2.21,2.21,0,1,0-2.21,2.3A2.18,2.18,0,0,0,233.78,266Z" style="fill:#263238"></path><line x1="146.33" y1="131.34" x2="138.22" y2="131.34" style="fill:none;stroke:#263238;stroke-linecap:round;stroke-linejoin:round"></line><polyline points="143.09 127.21 138.22 131.34 142.85 135.11" style="fill:none;stroke:#263238;stroke-linecap:round;stroke-linejoin:round"></polyline><line x1="137.48" y1="140.92" x2="275.82" y2="140.92" style="fill:none;stroke:#d4d6d7;stroke-linecap:round;stroke-linejoin:round"></line><line x1="137.48" y1="185.85" x2="275.82" y2="185.85" style="fill:none;stroke:#d4d6d7;stroke-linecap:round;stroke-linejoin:round"></line><line x1="137.48" y1="219.21" x2="275.82" y2="219.21" style="fill:none;stroke:#d4d6d7;stroke-linecap:round;stroke-linejoin:round"></line><line x1="137.48" y1="252.57" x2="275.82" y2="252.57" style="fill:none;stroke:#d4d6d7;stroke-linecap:round;stroke-linejoin:round"></line><line x1="137.48" y1="289.24" x2="275.82" y2="289.24" style="fill:none;stroke:#d4d6d7;stroke-linecap:round;stroke-linejoin:round"></line><line x1="137.48" y1="329.24" x2="275.82" y2="329.24" style="fill:none;stroke:#d4d6d7;stroke-linecap:round;stroke-linejoin:round"></line><path d="M263.59,174.41H246.24a6.45,6.45,0,0,1-6.45-6.45h0a6.45,6.45,0,0,1,6.45-6.45h17.35A6.45,6.45,0,0,1,270,168h0A6.45,6.45,0,0,1,263.59,174.41Z" style="fill:#7E57C2"></path><path d="M268.61,168a5.1,5.1,0,1,0-5.1,5.1A5.1,5.1,0,0,0,268.61,168Z" style="fill:#fff"></path><path d="M263.59,208.74H246.24a6.45,6.45,0,0,1-6.45-6.45h0a6.45,6.45,0,0,1,6.45-6.45h17.35a6.45,6.45,0,0,1,6.45,6.45h0A6.45,6.45,0,0,1,263.59,208.74Z" style="fill:#ccc"></path><path d="M251.61,202.29a5.1,5.1,0,1,0-5.1,5.1A5.11,5.11,0,0,0,251.61,202.29Z" style="fill:#fff;stroke:#d4d6d7;stroke-linecap:round;stroke-linejoin:round"></path><path d="M263.59,242.12H246.24a6.45,6.45,0,0,1-6.45-6.45h0a6.45,6.45,0,0,1,6.45-6.45h17.35a6.45,6.45,0,0,1,6.45,6.45h0A6.45,6.45,0,0,1,263.59,242.12Z" style="fill:#7E57C2"></path><path d="M268.61,235.67a5.1,5.1,0,1,0-5.1,5.09A5.1,5.1,0,0,0,268.61,235.67Z" style="fill:#fff"></path><path d="M263.59,272.78H246.24a6.45,6.45,0,0,1-6.45-6.45h0a6.45,6.45,0,0,1,6.45-6.45h17.35a6.45,6.45,0,0,1,6.45,6.45h0A6.45,6.45,0,0,1,263.59,272.78Z" style="fill:#7E57C2"></path><path d="M268.61,266.33a5.1,5.1,0,1,0-5.1,5.1A5.09,5.09,0,0,0,268.61,266.33Z" style="fill:#fff"></path><path d="M209.1,341.53a4,4,0,1,0-4,4A4,4,0,0,0,209.1,341.53Z" style="fill:#fff;stroke:#d4d6d7;stroke-linecap:round;stroke-linejoin:round"></path><path d="M174.72,342.26l5.32,3.07a1,1,0,0,0,1.5-.87v-6.13a1,1,0,0,0-1.5-.87l-5.32,3.07A1,1,0,0,0,174.72,342.26Z" style="fill:#fff;stroke:#d4d6d7;stroke-linecap:round;stroke-linejoin:round"></path><rect x="225.56" y="337.53" width="8.45" height="8.45" style="fill:#fff;stroke:#d4d6d7;stroke-linecap:round;stroke-linejoin:round"></rect></g><g id="freepik--Character--inject-21"><rect x="285" y="407.7" width="90.13" height="18.33" style="fill:#263238;stroke:#263238;stroke-linecap:round;stroke-linejoin:round"></rect><path d="M325.51,270.05s-12.95,2.53-15.48,3.09-3.94,35.73-2.53,48.67,2.81,92,2.81,92h41.36s1.41-103.82,2.82-114.23,4.22-24.76,4.22-24.76S334.51,268.64,325.51,270.05Z" style="fill:#fff"></path><g style="clip-path:url(#freepik--clip-path-2--inject-21)"><path d="M320.51,364.91c0-25.87,3.41-86.39,3.41-86.39l-6.35-6.91c-3.2.64-6.41,1.28-7.54,1.53-2.53.56-3.94,35.73-2.53,48.67s2.81,92,2.81,92H319C319.67,400,320.51,380.09,320.51,364.91Z" style="opacity:0.30000000000000004"></path></g><path d="M325.51,270.05s-12.95,2.53-15.48,3.09-3.94,35.73-2.53,48.67,2.81,92,2.81,92h41.36s1.41-103.82,2.82-114.23,4.22-24.76,4.22-24.76S334.51,268.64,325.51,270.05Z" style="fill:none;stroke:#263238;stroke-linecap:round;stroke-linejoin:round"></path><path d="M341.26,369.08C341,375.77,341,414.49,341,426h41l-9.19-79.74a66.29,66.29,0,0,1,10.69,6.47c6.76,4.79,9.57,11.26,19.14,11.54s11.25-6.19,11.53-9.85-3.09-14.35-6.19-21.1-9-27.85-9-32.36-2.76-7.05-4.45-7.33-24.81-15.17-24.81-15.17l-11-3.66-2.82,3.66s-8.72,21.1-9.85,32.35S341,351.92,341,351.92,341.54,361.2,341.26,369.08Z" style="fill:#7E57C2"></path><g style="clip-path:url(#freepik--clip-path-3--inject-21)"><g style="opacity:0.30000000000000004"><path d="M343.39,333.25a81.16,81.16,0,0,1,2.5-9.83c3.9-11.71,12.69-20.5,21-29.28,5.41-5.73,7.7-9.78,8.65-11.92l-5.84-3.73-11-3.66-2.82,3.66s-8.72,21.1-9.85,32.35C345.53,316,344.43,325,343.39,333.25Z"></path><path d="M372.77,346.29a63.88,63.88,0,0,1,10,6,21,21,0,0,0-1.7-3.45l-8.3-19s-12.69,21-14.15,32.7c-1.21,9.64,2.54,49.69,3.91,63.56H382Z"></path><path d="M402.6,364.3c9.56.28,11.25-6.19,11.53-9.85s-3.09-14.35-6.19-21.1-9-27.85-9-32.36-2.76-7.05-4.45-7.33a57.09,57.09,0,0,1-7.09-4c3.9,4.27,7.78,9.86,7.78,15.22,0,10.73,10.74,46.85,10.74,46.85a66.59,66.59,0,0,0-4.73,12.47C401.65,364.24,402.11,364.28,402.6,364.3Z"></path></g></g><path d="M341.26,369.08C341,375.77,341,414.49,341,426h41l-9.19-79.74a66.29,66.29,0,0,1,10.69,6.47c6.76,4.79,9.57,11.26,19.14,11.54s11.25-6.19,11.53-9.85-3.09-14.35-6.19-21.1-9-27.85-9-32.36-2.76-7.05-4.45-7.33-24.81-15.17-24.81-15.17l-11-3.66-2.82,3.66s-8.72,21.1-9.85,32.35S341,351.92,341,351.92,341.54,361.2,341.26,369.08Z" style="fill:none;stroke:#263238;stroke-linecap:round;stroke-linejoin:round"></path><path d="M374.74,331.94s2.25-15.19,7.32-24.47" style="fill:none;stroke:#263238;stroke-linecap:round;stroke-linejoin:round"></path><path d="M255.83,355.7c2.25-3.09,24.38-44.3,24.38-44.3L279.11,426h38.37l-3.23-71.86V309.72c0-15.76.85-41.08.85-41.08s-3.66-1.41-6.47.28c0,0-30.39,7.88-34.33,9s-7.6,2.82-7.88,4.51-28.55,49.29-31.93,54.92S228,348.6,228.58,352s10.37,10.19,16,9.91A14.08,14.08,0,0,0,255.83,355.7Z" style="fill:#7E57C2"></path><g style="clip-path:url(#freepik--clip-path-4--inject-21)"><path d="M314.25,309.72c0-2.88,0-6.08.08-9.39a42.2,42.2,0,0,0-4.07,3.57c-2.15,2.14-20.49,14.22-30.18,20.54l-.47,49.94,34.64-46.2Z" style="opacity:0.30000000000000004"></path></g><path d="M255.83,355.7c2.25-3.09,24.38-44.3,24.38-44.3L279.11,426h38.37l-3.23-71.86V309.72c0-15.76.85-41.08.85-41.08s-3.66-1.41-6.47.28c0,0-30.39,7.88-34.33,9s-7.6,2.82-7.88,4.51-28.55,49.29-31.93,54.92S228,348.6,228.58,352s10.37,10.19,16,9.91A14.08,14.08,0,0,0,255.83,355.7Z" style="fill:none;stroke:#263238;stroke-linecap:round;stroke-linejoin:round"></path><path d="M349.7,272s1.13,11.53-3.09,29.54-5.35,26.73-5.91,33.76.56,21.1.56,21.1,4.78-40.8,7-47,3.37-11.54,11.53-16.89,13.22-11.81,13.51-12.94-.57-5.91-3.38-8.72-7.88-2-9.85-3.66-5.06-6.47-6.75-6.47-3.66,3.94-3.66,3.94Z" style="fill:#fff"></path><g style="clip-path:url(#freepik--clip-path-5--inject-21)"><path d="M353.36,260.76c-1.69,0-3.66,3.94-3.66,3.94V272s1.13,11.53-3.09,29.54c0,.11-.05.21-.08.32a89.82,89.82,0,0,1,4.72-8.72c4.4-6.83,8.3-7.81,10.25-16.1a17.84,17.84,0,0,0-.63-9.36,3.24,3.24,0,0,1-.76-.47C358.14,265.54,355.05,260.76,353.36,260.76Z" style="opacity:0.30000000000000004"></path></g><path d="M349.7,272s1.13,11.53-3.09,29.54-5.35,26.73-5.91,33.76.56,21.1.56,21.1,4.78-40.8,7-47,3.37-11.54,11.53-16.89,13.22-11.81,13.51-12.94-.57-5.91-3.38-8.72-7.88-2-9.85-3.66-5.06-6.47-6.75-6.47-3.66,3.94-3.66,3.94Z" style="fill:none;stroke:#263238;stroke-linecap:round;stroke-linejoin:round"></path><path d="M317.35,262.73s-7.32,2.81-8.16,3.66-10.41,1.12-11.26,5.34-4.22,4.79-2,9.57,11.54,17.16,13.79,19.41-1.69,18.85-2,27.86,6.47,28.13,6.47,28.13l3.94-82.15Z" style="fill:#fff"></path><g style="clip-path:url(#freepik--clip-path-6--inject-21)"><path d="M316.73,305l0-7.62-6.34,6.38c.1,5.73-2.43,17.69-2.66,24.85a35.27,35.27,0,0,0,.65,6.86l7.32-9.87Z" style="opacity:0.30000000000000004"></path></g><path d="M317.35,262.73s-7.32,2.81-8.16,3.66-10.41,1.12-11.26,5.34-4.22,4.79-2,9.57,11.54,17.16,13.79,19.41-1.69,18.85-2,27.86,6.47,28.13,6.47,28.13l3.94-82.15Z" style="fill:none;stroke:#263238;stroke-linecap:round;stroke-linejoin:round"></path><path d="M315.38,254.29s2.53,18.85,2.53,22.51,11.25,21.38,13.79,22.51,12.09-10.41,14.91-14.91a26,26,0,0,0,3.65-9.57c.57-2.25.85-18,.85-18a41,41,0,0,1-17.44,3.66A32.61,32.61,0,0,1,315.38,254.29Z" style="fill:#fff;stroke:#263238;stroke-linecap:round;stroke-linejoin:round"></path><path d="M309.47,232.06l-3.38-.28s-1.68,3.38.28,8.72a16.8,16.8,0,0,0,5.91,7.88s2,8.72,4.79,11.54,9.28,11.53,12.38,12.1,9.84,1.4,14.06,0,8.72-10.41,11-14.35,2.25-11.26,2.25-11.26,4.78-3.37,6.47-7.87,1.4-8.16.28-9.57-4.5-.28-4.5-.28,0-6.19-.28-12.1-5.91-8.72-18-6.75S314.82,218,312,222.5A18.14,18.14,0,0,0,309.47,232.06Z" style="fill:#fff"></path><g style="clip-path:url(#freepik--clip-path-7--inject-21)"><path d="M363.49,229c-1.13-1.41-4.5-.28-4.5-.28s0-6.19-.28-12.1a6.69,6.69,0,0,0-3.9-6l-3.07,3.52s1,23.42-2.44,37.09c-2.64,10.56-7.32,17.89-12.23,21.59a20.46,20.46,0,0,0,6.44-.76c4.22-1.41,8.72-10.41,11-14.35s2.25-11.26,2.25-11.26,4.78-3.37,6.47-7.87S364.61,230.38,363.49,229Z" style="opacity:0.30000000000000004"></path></g><path d="M309.47,232.06l-3.38-.28s-1.68,3.38.28,8.72a16.8,16.8,0,0,0,5.91,7.88s2,8.72,4.79,11.54,9.28,11.53,12.38,12.1,9.84,1.4,14.06,0,8.72-10.41,11-14.35,2.25-11.26,2.25-11.26,4.78-3.37,6.47-7.87,1.4-8.16.28-9.57-4.5-.28-4.5-.28,0-6.19-.28-12.1-5.91-8.72-18-6.75S314.82,218,312,222.5A18.14,18.14,0,0,0,309.47,232.06Z" style="fill:none;stroke:#263238;stroke-linecap:round;stroke-linejoin:round"></path><path d="M331.13,249.51a10.16,10.16,0,0,0,4.79,2.25C338.45,252,341,249,341,249" style="fill:none;stroke:#263238;stroke-linecap:round;stroke-linejoin:round"></path><path d="M328,256a18.62,18.62,0,0,0,16-.85" style="fill:none;stroke:#263238;stroke-linecap:round;stroke-linejoin:round"></path><path d="M326.35,239.24c0,1.32-.63,2.39-1.41,2.39s-1.4-1.07-1.4-2.39.63-2.39,1.4-2.39S326.35,237.92,326.35,239.24Z" style="fill:#263238"></path><path d="M346.33,239.24c0,1.32-.63,2.39-1.41,2.39s-1.41-1.07-1.41-2.39.63-2.39,1.41-2.39S346.33,237.92,346.33,239.24Z" style="fill:#263238"></path><path d="M341,232.35a14.25,14.25,0,0,1,7.32-3.66c4.22-.56,4.5.84,4.5.84" style="fill:none;stroke:#263238;stroke-linecap:round;stroke-linejoin:round;stroke-width:2px"></path><path d="M329.45,232.35s-6.48-4.51-11.26-1.13" style="fill:none;stroke:#263238;stroke-linecap:round;stroke-linejoin:round;stroke-width:2px"></path><path d="M314.82,233.47h17.73a0,0,0,0,1,0,0v7.27a2.58,2.58,0,0,1-2.58,2.58H317.39a2.58,2.58,0,0,1-2.58-2.58v-7.27A0,0,0,0,1,314.82,233.47Z" style="fill:none;stroke:#263238;stroke-linecap:round;stroke-linejoin:round"></path><path d="M338.45,233.47h17.72a0,0,0,0,1,0,0v7.27a2.58,2.58,0,0,1-2.58,2.58H341a2.58,2.58,0,0,1-2.58-2.58v-7.27A0,0,0,0,1,338.45,233.47Z" style="fill:none;stroke:#263238;stroke-linecap:round;stroke-linejoin:round"></path><path d="M322.69,237.69s1.69-1.41,4.22.28" style="fill:none;stroke:#263238;stroke-linecap:round;stroke-linejoin:round"></path><path d="M343.09,237.69s1.69-1.41,4.22.28" style="fill:none;stroke:#263238;stroke-linecap:round;stroke-linejoin:round"></path><line x1="332.54" y1="233.47" x2="338.45" y2="233.47" style="fill:none;stroke:#263238;stroke-linecap:round;stroke-linejoin:round"></line><line x1="314.82" y1="233.47" x2="310.64" y2="233.47" style="fill:none;stroke:#263238;stroke-linecap:round;stroke-linejoin:round"></line><line x1="356.17" y1="233.47" x2="358.71" y2="233.47" style="fill:none;stroke:#263238;stroke-linecap:round;stroke-linejoin:round"></line><path d="M308.34,231.5s3.66,10.69,4.51,10.69-.29-12.1-.29-12.1,18-7.87,25.33-9.28,10.41-3.66,10.41-3.66l-12.1,7.6s6.75,1.12,11.25-1.13a32.52,32.52,0,0,0,7.6-5.34s.84,21.66,2.25,21.38,1.41-5.34,1.41-6.47-.29-5.35,3.37-12.1,4.5-11.25,2.53-17.72-9-12.38-11-12.38h-3.38s-1.68-4.5-10.69-3.94-28.41,4.78-33.2,12.66S301,211,301.31,213.78,308.34,231.5,308.34,231.5Z" style="fill:#263238;stroke:#263238;stroke-linecap:round;stroke-linejoin:round"></path><path d="M307.73,224.65s.91,2.43,16.7-7,31.27-13,31.57-5.46" style="fill:none;stroke:#fff;stroke-linecap:round;stroke-linejoin:round"></path><path d="M355.09,206.13s0-11.23-8.5-11.53-16.7,4.25-27.32,11.53-12.75,9.72-15.49,7.29" style="fill:none;stroke:#fff;stroke-linecap:round;stroke-linejoin:round"></path><path d="M357.52,213.42s5.21-1.3,3.34,7" style="fill:none;stroke:#fff;stroke-linecap:round;stroke-linejoin:round"></path><path d="M354.79,200.06s3.64-5.16,7.89,5.16" style="fill:none;stroke:#fff;stroke-linecap:round;stroke-linejoin:round"></path><path d="M270.08,302.4l7.32-11.82s2.53-16.59,3.65-18,18-7,19.7-7.6,7-8.16,8.44-8.16,3.66,1.69,4.22,4.22,4.78,7.32,4.78,9.57-.56,2.81-2,2.25a9.41,9.41,0,0,1-4.22-4.5c-.56-1.69-2.81-2-2.81-2l-5.63,4.78a68.27,68.27,0,0,1,1.41,6.75c0,1.13,2.25.85,3.66-1.12s7-2.81,7.87-2.53,2,1.68-1.4,3.94-7.88,5.34-10.13,10.12-3.38,8.16-7.6,9.29a49.73,49.73,0,0,1-7.31,1.41l-10.41,11Z" style="fill:#fff;stroke:#263238;stroke-linecap:round;stroke-linejoin:round"></path><path d="M283,276.24l5.63,5.62s-2.25,6.19-2.25,9,2.53,2,3.66,0,3.09-6.76,2.81-9.57a18.63,18.63,0,0,0-2-5.91" style="fill:none;stroke:#263238;stroke-linecap:round;stroke-linejoin:round"></path><path d="M292.87,284.68s-1.13,7.31.56,7.31,2.25-1.12,3.66-4.22,2-8.72,2-10.13S295.4,272,295.4,272" style="fill:none;stroke:#263238;stroke-linecap:round;stroke-linejoin:round"></path><path d="M301.31,268.08s4.5,8.44,4.78,10.69-4.5,9.85-5.34,10.41-2.25,1.12-2.25-.85v-3.65" style="fill:none;stroke:#263238;stroke-linecap:round;stroke-linejoin:round"></path><path d="M268.11,298.74l15.76,11.54s-23.26,49.08-26.63,53.86-10.69,5.91-18,5.35-14.31-12.45-12.9-16.67S268.11,298.74,268.11,298.74Z" style="fill:#7E57C2;stroke:#263238;stroke-linecap:round;stroke-linejoin:round"></path><rect x="319.04" y="264.14" width="25.88" height="46.7" rx="2.58" style="fill:#263238;stroke:#263238;stroke-linecap:round;stroke-linejoin:round"></rect><rect x="321.85" y="268.08" width="3.09" height="4.78" style="fill:#fff"></rect><path d="M366.3,324.63s-8.44-9.57-11-13.51-5.07-16-6.47-18.57-12.94-8.72-16-9.56-13.5.28-14.91.84-2.81,1.13-1.41,2.53a17,17,0,0,0,2.25,2s-3.37.57-2.53,2.82a4.05,4.05,0,0,0,3.1,2.53s-3.66,2-2.54,3.66,10.7,3.37,10.7,3.37l3.65,2.82s-11.81-.28-13.5,0-2.25,2.25-.56,2.53,13.5.84,13.5.84,7.6,9.29,9.28,11,5.91,2.25,5.91,2.25l13.79,16Z" style="fill:#fff;stroke:#263238;stroke-linecap:round;stroke-linejoin:round"></path><path d="M319.32,293.68s8.91.91,10.91,1.31,7,4,7,4" style="fill:none;stroke:#263238;stroke-linecap:round;stroke-linejoin:round"></path><path d="M318.75,288.33s10.88-.54,13.88.46a55.79,55.79,0,0,1,7.79,3.8" style="fill:none;stroke:#263238;stroke-linecap:round;stroke-linejoin:round"></path><path d="M362.93,314.78l-11,20s39.39,30.66,44.74,33.2,11.25-.57,15.47-4.22,3.66-12.38,2.25-15.76-7.88-9.57-15.75-13.5S362.93,314.78,362.93,314.78Z" style="fill:#7E57C2;stroke:#263238;stroke-linecap:round;stroke-linejoin:round"></path></g></svg>